<?xml version="1.0" encoding="utf-8" standalone="no"?>
<!DOCTYPE svg PUBLIC "-//W3C//DTD SVG 1.1//EN"
  "http://www.w3.org/Graphics/SVG/1.1/DTD/svg11.dtd">
<svg xmlns:xlink="http://www.w3.org/1999/xlink" width="442.619062pt" height="327.831562pt" viewBox="0 0 442.619062 327.831562" xmlns="http://www.w3.org/2000/svg" version="1.1">
 <metadata>
  <rdf:RDF xmlns:dc="http://purl.org/dc/elements/1.1/" xmlns:cc="http://creativecommons.org/ns#" xmlns:rdf="http://www.w3.org/1999/02/22-rdf-syntax-ns#">
   <cc:Work>
    <dc:type rdf:resource="http://purl.org/dc/dcmitype/StillImage"/>
    <dc:date>2024-03-21T20:25:57.256493</dc:date>
    <dc:format>image/svg+xml</dc:format>
    <dc:creator>
     <cc:Agent>
      <dc:title>Matplotlib v3.5.3, https://matplotlib.org/</dc:title>
     </cc:Agent>
    </dc:creator>
   </cc:Work>
  </rdf:RDF>
 </metadata>
 <defs>
  <style type="text/css">*{stroke-linejoin: round; stroke-linecap: butt}</style>
 </defs>
 <g id="figure_1">
  <g id="patch_1">
   <path d="M 0 327.831562 
L 442.619062 327.831562 
L 442.619062 0 
L 0 0 
z
" style="fill: #ffffff"/>
  </g>
  <g id="axes_1">
   <g id="patch_2">
    <path d="M 53.489063 284.097187 
L 435.419062 284.097187 
L 435.419062 26.877187 
L 53.489063 26.877187 
z
" style="fill: #ffffff"/>
   </g>
   <g id="matplotlib.axis_1">
    <g id="xtick_1">
     <g id="line2d_1">
      <path d="M 69.850807 284.097187 
L 69.850807 26.877187 
" clip-path="url(#pea66cb6b48)" style="fill: none; stroke: #cccccc; stroke-width: 0.8; stroke-linecap: round"/>
     </g>
     <g id="line2d_2"/>
     <g id="text_1">
      <!-- 0 -->
      <g style="fill: #262626" transform="translate(65.078932 298.994844)scale(0.15 -0.15)">
       <defs>
        <path id="DejaVuSans-30" d="M 2034 4250 
Q 1547 4250 1301 3770 
Q 1056 3291 1056 2328 
Q 1056 1369 1301 889 
Q 1547 409 2034 409 
Q 2525 409 2770 889 
Q 3016 1369 3016 2328 
Q 3016 3291 2770 3770 
Q 2525 4250 2034 4250 
z
M 2034 4750 
Q 2819 4750 3233 4129 
Q 3647 3509 3647 2328 
Q 3647 1150 3233 529 
Q 2819 -91 2034 -91 
Q 1250 -91 836 529 
Q 422 1150 422 2328 
Q 422 3509 836 4129 
Q 1250 4750 2034 4750 
z
" transform="scale(0.015625)"/>
       </defs>
       <use xlink:href="#DejaVuSans-30"/>
      </g>
     </g>
    </g>
    <g id="xtick_2">
     <g id="line2d_3">
      <path d="M 162.323998 284.097187 
L 162.323998 26.877187 
" clip-path="url(#pea66cb6b48)" style="fill: none; stroke: #cccccc; stroke-width: 0.8; stroke-linecap: round"/>
     </g>
     <g id="line2d_4"/>
     <g id="text_2">
      <!-- 10000 -->
      <g style="fill: #262626" transform="translate(138.464623 298.994844)scale(0.15 -0.15)">
       <defs>
        <path id="DejaVuSans-31" d="M 794 531 
L 1825 531 
L 1825 4091 
L 703 3866 
L 703 4441 
L 1819 4666 
L 2450 4666 
L 2450 531 
L 3481 531 
L 3481 0 
L 794 0 
L 794 531 
z
" transform="scale(0.015625)"/>
       </defs>
       <use xlink:href="#DejaVuSans-31"/>
       <use xlink:href="#DejaVuSans-30" x="63.623047"/>
       <use xlink:href="#DejaVuSans-30" x="127.246094"/>
       <use xlink:href="#DejaVuSans-30" x="190.869141"/>
       <use xlink:href="#DejaVuSans-30" x="254.492188"/>
      </g>
     </g>
    </g>
    <g id="xtick_3">
     <g id="line2d_5">
      <path d="M 254.797189 284.097187 
L 254.797189 26.877187 
" clip-path="url(#pea66cb6b48)" style="fill: none; stroke: #cccccc; stroke-width: 0.8; stroke-linecap: round"/>
     </g>
     <g id="line2d_6"/>
     <g id="text_3">
      <!-- 20000 -->
      <g style="fill: #262626" transform="translate(230.937814 298.994844)scale(0.15 -0.15)">
       <defs>
        <path id="DejaVuSans-32" d="M 1228 531 
L 3431 531 
L 3431 0 
L 469 0 
L 469 531 
Q 828 903 1448 1529 
Q 2069 2156 2228 2338 
Q 2531 2678 2651 2914 
Q 2772 3150 2772 3378 
Q 2772 3750 2511 3984 
Q 2250 4219 1831 4219 
Q 1534 4219 1204 4116 
Q 875 4013 500 3803 
L 500 4441 
Q 881 4594 1212 4672 
Q 1544 4750 1819 4750 
Q 2544 4750 2975 4387 
Q 3406 4025 3406 3419 
Q 3406 3131 3298 2873 
Q 3191 2616 2906 2266 
Q 2828 2175 2409 1742 
Q 1991 1309 1228 531 
z
" transform="scale(0.015625)"/>
       </defs>
       <use xlink:href="#DejaVuSans-32"/>
       <use xlink:href="#DejaVuSans-30" x="63.623047"/>
       <use xlink:href="#DejaVuSans-30" x="127.246094"/>
       <use xlink:href="#DejaVuSans-30" x="190.869141"/>
       <use xlink:href="#DejaVuSans-30" x="254.492188"/>
      </g>
     </g>
    </g>
    <g id="xtick_4">
     <g id="line2d_7">
      <path d="M 347.27038 284.097187 
L 347.27038 26.877187 
" clip-path="url(#pea66cb6b48)" style="fill: none; stroke: #cccccc; stroke-width: 0.8; stroke-linecap: round"/>
     </g>
     <g id="line2d_8"/>
     <g id="text_4">
      <!-- 30000 -->
      <g style="fill: #262626" transform="translate(323.411005 298.994844)scale(0.15 -0.15)">
       <defs>
        <path id="DejaVuSans-33" d="M 2597 2516 
Q 3050 2419 3304 2112 
Q 3559 1806 3559 1356 
Q 3559 666 3084 287 
Q 2609 -91 1734 -91 
Q 1441 -91 1130 -33 
Q 819 25 488 141 
L 488 750 
Q 750 597 1062 519 
Q 1375 441 1716 441 
Q 2309 441 2620 675 
Q 2931 909 2931 1356 
Q 2931 1769 2642 2001 
Q 2353 2234 1838 2234 
L 1294 2234 
L 1294 2753 
L 1863 2753 
Q 2328 2753 2575 2939 
Q 2822 3125 2822 3475 
Q 2822 3834 2567 4026 
Q 2313 4219 1838 4219 
Q 1578 4219 1281 4162 
Q 984 4106 628 3988 
L 628 4550 
Q 988 4650 1302 4700 
Q 1616 4750 1894 4750 
Q 2613 4750 3031 4423 
Q 3450 4097 3450 3541 
Q 3450 3153 3228 2886 
Q 3006 2619 2597 2516 
z
" transform="scale(0.015625)"/>
       </defs>
       <use xlink:href="#DejaVuSans-33"/>
       <use xlink:href="#DejaVuSans-30" x="63.623047"/>
       <use xlink:href="#DejaVuSans-30" x="127.246094"/>
       <use xlink:href="#DejaVuSans-30" x="190.869141"/>
       <use xlink:href="#DejaVuSans-30" x="254.492188"/>
      </g>
     </g>
    </g>
    <g id="text_5">
     <!-- epochs -->
     <g style="fill: #262626" transform="translate(217.704844 317.512031)scale(0.15 -0.15)">
      <defs>
       <path id="DejaVuSans-65" d="M 3597 1894 
L 3597 1613 
L 953 1613 
Q 991 1019 1311 708 
Q 1631 397 2203 397 
Q 2534 397 2845 478 
Q 3156 559 3463 722 
L 3463 178 
Q 3153 47 2828 -22 
Q 2503 -91 2169 -91 
Q 1331 -91 842 396 
Q 353 884 353 1716 
Q 353 2575 817 3079 
Q 1281 3584 2069 3584 
Q 2775 3584 3186 3129 
Q 3597 2675 3597 1894 
z
M 3022 2063 
Q 3016 2534 2758 2815 
Q 2500 3097 2075 3097 
Q 1594 3097 1305 2825 
Q 1016 2553 972 2059 
L 3022 2063 
z
" transform="scale(0.015625)"/>
       <path id="DejaVuSans-70" d="M 1159 525 
L 1159 -1331 
L 581 -1331 
L 581 3500 
L 1159 3500 
L 1159 2969 
Q 1341 3281 1617 3432 
Q 1894 3584 2278 3584 
Q 2916 3584 3314 3078 
Q 3713 2572 3713 1747 
Q 3713 922 3314 415 
Q 2916 -91 2278 -91 
Q 1894 -91 1617 61 
Q 1341 213 1159 525 
z
M 3116 1747 
Q 3116 2381 2855 2742 
Q 2594 3103 2138 3103 
Q 1681 3103 1420 2742 
Q 1159 2381 1159 1747 
Q 1159 1113 1420 752 
Q 1681 391 2138 391 
Q 2594 391 2855 752 
Q 3116 1113 3116 1747 
z
" transform="scale(0.015625)"/>
       <path id="DejaVuSans-6f" d="M 1959 3097 
Q 1497 3097 1228 2736 
Q 959 2375 959 1747 
Q 959 1119 1226 758 
Q 1494 397 1959 397 
Q 2419 397 2687 759 
Q 2956 1122 2956 1747 
Q 2956 2369 2687 2733 
Q 2419 3097 1959 3097 
z
M 1959 3584 
Q 2709 3584 3137 3096 
Q 3566 2609 3566 1747 
Q 3566 888 3137 398 
Q 2709 -91 1959 -91 
Q 1206 -91 779 398 
Q 353 888 353 1747 
Q 353 2609 779 3096 
Q 1206 3584 1959 3584 
z
" transform="scale(0.015625)"/>
       <path id="DejaVuSans-63" d="M 3122 3366 
L 3122 2828 
Q 2878 2963 2633 3030 
Q 2388 3097 2138 3097 
Q 1578 3097 1268 2742 
Q 959 2388 959 1747 
Q 959 1106 1268 751 
Q 1578 397 2138 397 
Q 2388 397 2633 464 
Q 2878 531 3122 666 
L 3122 134 
Q 2881 22 2623 -34 
Q 2366 -91 2075 -91 
Q 1284 -91 818 406 
Q 353 903 353 1747 
Q 353 2603 823 3093 
Q 1294 3584 2113 3584 
Q 2378 3584 2631 3529 
Q 2884 3475 3122 3366 
z
" transform="scale(0.015625)"/>
       <path id="DejaVuSans-68" d="M 3513 2113 
L 3513 0 
L 2938 0 
L 2938 2094 
Q 2938 2591 2744 2837 
Q 2550 3084 2163 3084 
Q 1697 3084 1428 2787 
Q 1159 2491 1159 1978 
L 1159 0 
L 581 0 
L 581 4863 
L 1159 4863 
L 1159 2956 
Q 1366 3272 1645 3428 
Q 1925 3584 2291 3584 
Q 2894 3584 3203 3211 
Q 3513 2838 3513 2113 
z
" transform="scale(0.015625)"/>
       <path id="DejaVuSans-73" d="M 2834 3397 
L 2834 2853 
Q 2591 2978 2328 3040 
Q 2066 3103 1784 3103 
Q 1356 3103 1142 2972 
Q 928 2841 928 2578 
Q 928 2378 1081 2264 
Q 1234 2150 1697 2047 
L 1894 2003 
Q 2506 1872 2764 1633 
Q 3022 1394 3022 966 
Q 3022 478 2636 193 
Q 2250 -91 1575 -91 
Q 1294 -91 989 -36 
Q 684 19 347 128 
L 347 722 
Q 666 556 975 473 
Q 1284 391 1588 391 
Q 1994 391 2212 530 
Q 2431 669 2431 922 
Q 2431 1156 2273 1281 
Q 2116 1406 1581 1522 
L 1381 1569 
Q 847 1681 609 1914 
Q 372 2147 372 2553 
Q 372 3047 722 3315 
Q 1072 3584 1716 3584 
Q 2034 3584 2315 3537 
Q 2597 3491 2834 3397 
z
" transform="scale(0.015625)"/>
      </defs>
      <use xlink:href="#DejaVuSans-65"/>
      <use xlink:href="#DejaVuSans-70" x="61.523438"/>
      <use xlink:href="#DejaVuSans-6f" x="125"/>
      <use xlink:href="#DejaVuSans-63" x="186.181641"/>
      <use xlink:href="#DejaVuSans-68" x="241.162109"/>
      <use xlink:href="#DejaVuSans-73" x="304.541016"/>
     </g>
    </g>
   </g>
   <g id="matplotlib.axis_2">
    <g id="ytick_1">
     <g id="line2d_9">
      <path d="M 53.489063 224.367351 
L 435.419062 224.367351 
" clip-path="url(#pea66cb6b48)" style="fill: none; stroke: #cccccc; stroke-width: 0.8; stroke-linecap: round"/>
     </g>
     <g id="line2d_10"/>
     <g id="text_6">
      <!-- 0.5 -->
      <g style="fill: #262626" transform="translate(26.134375 230.066179)scale(0.15 -0.15)">
       <defs>
        <path id="DejaVuSans-2e" d="M 684 794 
L 1344 794 
L 1344 0 
L 684 0 
L 684 794 
z
" transform="scale(0.015625)"/>
        <path id="DejaVuSans-35" d="M 691 4666 
L 3169 4666 
L 3169 4134 
L 1269 4134 
L 1269 2991 
Q 1406 3038 1543 3061 
Q 1681 3084 1819 3084 
Q 2600 3084 3056 2656 
Q 3513 2228 3513 1497 
Q 3513 744 3044 326 
Q 2575 -91 1722 -91 
Q 1428 -91 1123 -41 
Q 819 9 494 109 
L 494 744 
Q 775 591 1075 516 
Q 1375 441 1709 441 
Q 2250 441 2565 725 
Q 2881 1009 2881 1497 
Q 2881 1984 2565 2268 
Q 2250 2553 1709 2553 
Q 1456 2553 1204 2497 
Q 953 2441 691 2322 
L 691 4666 
z
" transform="scale(0.015625)"/>
       </defs>
       <use xlink:href="#DejaVuSans-30"/>
       <use xlink:href="#DejaVuSans-2e" x="63.623047"/>
       <use xlink:href="#DejaVuSans-35" x="95.410156"/>
      </g>
     </g>
    </g>
    <g id="ytick_2">
     <g id="line2d_11">
      <path d="M 53.489063 161.151258 
L 435.419062 161.151258 
" clip-path="url(#pea66cb6b48)" style="fill: none; stroke: #cccccc; stroke-width: 0.8; stroke-linecap: round"/>
     </g>
     <g id="line2d_12"/>
     <g id="text_7">
      <!-- 1.0 -->
      <g style="fill: #262626" transform="translate(26.134375 166.850086)scale(0.15 -0.15)">
       <use xlink:href="#DejaVuSans-31"/>
       <use xlink:href="#DejaVuSans-2e" x="63.623047"/>
       <use xlink:href="#DejaVuSans-30" x="95.410156"/>
      </g>
     </g>
    </g>
    <g id="ytick_3">
     <g id="line2d_13">
      <path d="M 53.489063 97.935165 
L 435.419062 97.935165 
" clip-path="url(#pea66cb6b48)" style="fill: none; stroke: #cccccc; stroke-width: 0.8; stroke-linecap: round"/>
     </g>
     <g id="line2d_14"/>
     <g id="text_8">
      <!-- 1.5 -->
      <g style="fill: #262626" transform="translate(26.134375 103.633993)scale(0.15 -0.15)">
       <use xlink:href="#DejaVuSans-31"/>
       <use xlink:href="#DejaVuSans-2e" x="63.623047"/>
       <use xlink:href="#DejaVuSans-35" x="95.410156"/>
      </g>
     </g>
    </g>
    <g id="ytick_4">
     <g id="line2d_15">
      <path d="M 53.489063 34.719072 
L 435.419062 34.719072 
" clip-path="url(#pea66cb6b48)" style="fill: none; stroke: #cccccc; stroke-width: 0.8; stroke-linecap: round"/>
     </g>
     <g id="line2d_16"/>
     <g id="text_9">
      <!-- 2.0 -->
      <g style="fill: #262626" transform="translate(26.134375 40.4179)scale(0.15 -0.15)">
       <use xlink:href="#DejaVuSans-32"/>
       <use xlink:href="#DejaVuSans-2e" x="63.623047"/>
       <use xlink:href="#DejaVuSans-30" x="95.410156"/>
      </g>
     </g>
    </g>
    <g id="text_10">
     <!-- train_loss -->
     <g style="fill: #262626" transform="translate(18.597656 191.180156)rotate(-90)scale(0.15 -0.15)">
      <defs>
       <path id="DejaVuSans-74" d="M 1172 4494 
L 1172 3500 
L 2356 3500 
L 2356 3053 
L 1172 3053 
L 1172 1153 
Q 1172 725 1289 603 
Q 1406 481 1766 481 
L 2356 481 
L 2356 0 
L 1766 0 
Q 1100 0 847 248 
Q 594 497 594 1153 
L 594 3053 
L 172 3053 
L 172 3500 
L 594 3500 
L 594 4494 
L 1172 4494 
z
" transform="scale(0.015625)"/>
       <path id="DejaVuSans-72" d="M 2631 2963 
Q 2534 3019 2420 3045 
Q 2306 3072 2169 3072 
Q 1681 3072 1420 2755 
Q 1159 2438 1159 1844 
L 1159 0 
L 581 0 
L 581 3500 
L 1159 3500 
L 1159 2956 
Q 1341 3275 1631 3429 
Q 1922 3584 2338 3584 
Q 2397 3584 2469 3576 
Q 2541 3569 2628 3553 
L 2631 2963 
z
" transform="scale(0.015625)"/>
       <path id="DejaVuSans-61" d="M 2194 1759 
Q 1497 1759 1228 1600 
Q 959 1441 959 1056 
Q 959 750 1161 570 
Q 1363 391 1709 391 
Q 2188 391 2477 730 
Q 2766 1069 2766 1631 
L 2766 1759 
L 2194 1759 
z
M 3341 1997 
L 3341 0 
L 2766 0 
L 2766 531 
Q 2569 213 2275 61 
Q 1981 -91 1556 -91 
Q 1019 -91 701 211 
Q 384 513 384 1019 
Q 384 1609 779 1909 
Q 1175 2209 1959 2209 
L 2766 2209 
L 2766 2266 
Q 2766 2663 2505 2880 
Q 2244 3097 1772 3097 
Q 1472 3097 1187 3025 
Q 903 2953 641 2809 
L 641 3341 
Q 956 3463 1253 3523 
Q 1550 3584 1831 3584 
Q 2591 3584 2966 3190 
Q 3341 2797 3341 1997 
z
" transform="scale(0.015625)"/>
       <path id="DejaVuSans-69" d="M 603 3500 
L 1178 3500 
L 1178 0 
L 603 0 
L 603 3500 
z
M 603 4863 
L 1178 4863 
L 1178 4134 
L 603 4134 
L 603 4863 
z
" transform="scale(0.015625)"/>
       <path id="DejaVuSans-6e" d="M 3513 2113 
L 3513 0 
L 2938 0 
L 2938 2094 
Q 2938 2591 2744 2837 
Q 2550 3084 2163 3084 
Q 1697 3084 1428 2787 
Q 1159 2491 1159 1978 
L 1159 0 
L 581 0 
L 581 3500 
L 1159 3500 
L 1159 2956 
Q 1366 3272 1645 3428 
Q 1925 3584 2291 3584 
Q 2894 3584 3203 3211 
Q 3513 2838 3513 2113 
z
" transform="scale(0.015625)"/>
       <path id="DejaVuSans-5f" d="M 3263 -1063 
L 3263 -1509 
L -63 -1509 
L -63 -1063 
L 3263 -1063 
z
" transform="scale(0.015625)"/>
       <path id="DejaVuSans-6c" d="M 603 4863 
L 1178 4863 
L 1178 0 
L 603 0 
L 603 4863 
z
" transform="scale(0.015625)"/>
      </defs>
      <use xlink:href="#DejaVuSans-74"/>
      <use xlink:href="#DejaVuSans-72" x="39.208984"/>
      <use xlink:href="#DejaVuSans-61" x="80.322266"/>
      <use xlink:href="#DejaVuSans-69" x="141.601562"/>
      <use xlink:href="#DejaVuSans-6e" x="169.384766"/>
      <use xlink:href="#DejaVuSans-5f" x="232.763672"/>
      <use xlink:href="#DejaVuSans-6c" x="282.763672"/>
      <use xlink:href="#DejaVuSans-6f" x="310.546875"/>
      <use xlink:href="#DejaVuSans-73" x="371.728516"/>
      <use xlink:href="#DejaVuSans-73" x="423.828125"/>
     </g>
    </g>
   </g>
   <g id="line2d_17">
    <path d="M 70.849517 38.569006 
L 71.450593 48.952815 
L 72.1164 128.387393 
L 72.25511 103.804129 
L 72.467798 162.774063 
L 73.577476 162.924149 
L 73.697691 167.820238 
L 73.901132 146.731 
L 74.160057 165.316887 
L 74.576187 168.051531 
L 74.788875 167.663762 
L 74.835112 152.515577 
L 75.371456 189.569135 
L 75.750596 147.178982 
L 75.80608 178.416531 
L 75.94479 180.85031 
L 76.925006 212.829065 
L 77.294898 170.160993 
L 77.868232 189.062576 
L 78.053179 176.243963 
L 79.246083 185.008773 
L 79.347803 184.588154 
L 79.449524 167.448844 
L 80.263288 175.227281 
L 80.328019 163.254849 
L 80.623933 206.044317 
L 80.734901 176.772602 
L 80.80888 203.043006 
L 81.437697 183.149256 
L 81.456192 174.130251 
L 81.576407 203.642024 
L 81.613396 203.480287 
L 82.584365 208.388102 
L 82.963505 190.869907 
L 83.675549 215.206226 
L 83.823506 197.212249 
L 83.851248 163.411823 
L 84.174904 206.30812 
L 84.202646 192.354722 
L 84.332108 213.156984 
L 84.979421 196.281228 
L 85.303077 180.966484 
L 86.939852 202.677046 
L 87.420713 196.08873 
L 87.513186 188.557035 
L 87.799853 212.458191 
L 87.984799 218.432055 
L 87.994047 217.570109 
L 89.08523 219.720747 
L 91.67448 207.985878 
L 92.386523 198.206949 
L 92.43276 201.411519 
L 92.626954 203.741807 
L 92.654696 211.847432 
L 93.006094 172.285783 
L 93.690395 226.727925 
L 93.699643 216.841179 
L 93.893836 227.576929 
L 94.22674 208.206094 
L 94.300718 229.627365 
L 94.679858 198.072289 
L 94.763084 207.292496 
L 94.901794 195.667305 
L 94.98502 212.638692 
L 95.327171 207.959495 
L 95.456633 214.55558 
L 95.613838 206.645942 
L 95.863515 214.154404 
L 96.159429 215.320674 
L 96.316634 213.048677 
L 97.352334 216.63321 
L 98.369539 211.613291 
L 98.378786 210.916947 
L 98.563732 215.006433 
L 98.57298 207.245238 
L 98.942873 203.032057 
L 99.442228 220.634179 
L 99.60868 198.798604 
L 99.830615 228.127852 
L 100.080293 218.117565 
L 100.894057 221.694773 
L 101.337928 208.247813 
L 102.225671 213.593737 
L 102.466101 211.940298 
L 102.835994 210.348246 
L 103.150403 233.248376 
L 103.29836 235.314484 
L 103.649758 218.806486 
L 103.714489 227.963715 
L 103.77922 191.561564 
L 103.806962 222.717778 
L 103.982661 220.860159 
L 104.186102 217.340036 
L 104.833415 213.917089 
L 105.443738 225.398441 
L 106.063308 191.918052 
L 106.22976 228.998608 
L 106.618147 206.848192 
L 106.960298 227.797593 
L 107.062019 211.155617 
L 107.626105 234.801244 
L 107.857288 220.99607 
L 107.968256 226.828154 
L 107.995998 223.461914 
L 108.199439 207.903525 
L 108.523095 226.068621 
L 108.624816 224.307229 
L 108.948472 224.41078 
L 109.225891 211.091939 
L 109.789978 196.903592 
L 109.882451 214.980291 
L 111.047613 204.887987 
L 111.796646 206.734881 
L 111.833635 230.872982 
L 112.064818 229.176904 
L 112.50869 234.351665 
L 112.85084 234.277025 
L 113.229981 227.59691 
L 113.303959 206.524515 
L 113.387185 215.875335 
L 113.599873 219.266375 
L 114.034497 238.189692 
L 114.5431 216.784245 
L 114.580089 194.33134 
L 114.654068 225.763498 
L 115.005466 205.339774 
L 115.264391 210.603105 
L 116.827188 227.395979 
L 116.910414 226.944083 
L 116.928908 210.956691 
L 117.317296 217.109135 
L 117.354285 224.514468 
L 117.529984 226.06246 
L 117.825898 237.592219 
L 117.946113 233.237656 
L 118.177296 190.468972 
L 118.297511 223.662371 
L 118.436221 185.927638 
L 118.519447 241.563474 
L 118.824609 202.89491 
L 119.046544 210.58847 
L 119.444179 207.787494 
L 119.823319 215.800518 
L 120.211706 199.769482 
L 120.294932 183.46508 
L 120.803535 220.793444 
L 122.264611 189.723539 
L 122.847192 218.209466 
L 123.106117 216.956231 
L 123.790419 224.243618 
L 124.104828 203.466722 
L 124.225043 228.818732 
L 124.937087 207.144415 
L 125.16827 245.749775 
L 125.316227 223.374053 
L 125.834077 219.494307 
L 126.370421 233.816669 
L 126.620099 234.605637 
L 126.657088 225.736685 
L 127.424615 216.392075 
L 127.591067 195.779538 
L 127.923971 226.222964 
L 128.432573 243.880163 
L 128.654509 240.774804 
L 128.663756 193.858023 
L 128.756229 221.527106 
L 130.226553 222.577594 
L 130.439241 213.144278 
L 130.605693 234.761085 
L 130.75365 230.711547 
L 130.799887 216.386076 
L 130.883113 223.560447 
L 131.03107 237.13334 
L 131.567414 202.764515 
L 132.279458 216.448753 
L 132.760319 211.809436 
L 133.130211 235.658428 
L 133.20419 225.772277 
L 133.814513 198.474098 
L 133.842255 216.876327 
L 134.508062 189.46174 
L 134.554298 230.596145 
L 134.572793 216.131821 
L 135.090643 231.506303 
L 135.673224 227.173488 
L 135.700966 239.398759 
L 135.75645 232.062787 
L 136.107848 221.154785 
L 136.505483 226.012821 
L 136.930859 203.890363 
L 137.125053 222.760454 
L 137.439462 225.794037 
L 137.716882 248.713233 
L 137.855591 227.440001 
L 138.623119 235.760819 
L 138.882044 220.30739 
L 138.919033 224.489478 
L 138.937528 231.371315 
L 139.270431 219.020515 
L 139.381399 221.135772 
L 139.612582 214.243803 
L 140.074948 228.728003 
L 140.176668 221.138409 
L 140.546561 235.02695 
L 141.314089 194.61476 
L 141.341831 205.166832 
L 141.582261 236.235757 
L 141.933659 235.533975 
L 141.942906 218.91691 
L 142.183337 225.282908 
L 142.497746 210.455257 
L 142.867638 231.719623 
L 143.709144 215.939654 
L 144.96678 236.486711 
L 145.170221 249.68422 
L 145.836028 193.874526 
L 146.529577 240.085668 
L 146.575813 240.384671 
L 147.324846 238.456909 
L 147.509793 232.252459 
L 148.379041 226.36623 
L 148.906138 174.905511 
L 148.961622 235.348753 
L 149.55345 227.119644 
L 149.93259 210.967935 
L 149.969579 229.600319 
L 150.256246 234.597578 
L 150.533666 236.012934 
L 150.792591 238.684551 
L 151.033021 204.979774 
L 151.44915 227.328258 
L 151.541624 200.52527 
L 151.883774 221.230868 
L 151.948506 215.708919 
L 152.318398 241.833811 
L 152.947216 225.54702 
L 153.14141 233.324459 
L 153.391087 214.723488 
L 153.62227 233.827834 
L 154.204852 231.537012 
L 154.491518 235.585231 
L 155.046358 250.706551 
L 155.41625 225.466088 
L 155.887864 239.359907 
L 155.97109 232.984237 
L 156.109799 241.955004 
L 156.405714 236.32872 
L 156.525929 246.744972 
L 156.664638 238.236015 
L 157.302703 226.255945 
L 158.14421 242.687739 
L 158.319909 230.968519 
L 159.290877 226.748069 
L 159.300124 234.063223 
L 159.670017 236.633805 
L 160.049157 212.86685 
L 160.058405 232.542039 
L 160.224856 245.194127 
L 160.603996 231.196801 
L 160.825932 227.847432 
L 160.946147 243.248214 
L 161.103352 226.419724 
L 161.353029 233.109993 
L 161.565718 214.804085 
L 161.852384 243.472842 
L 161.963352 218.095575 
L 162.083567 236.238093 
L 162.268514 217.422058 
L 162.915826 229.254163 
L 163.165504 214.311084 
L 163.609375 241.304633 
L 164.099483 232.002628 
L 164.256687 243.835042 
L 164.321419 223.646816 
L 164.922494 239.949614 
L 165.495828 242.913663 
L 165.985936 231.385611 
L 166.448302 248.428525 
L 166.503786 222.57669 
L 166.568517 236.573043 
L 166.966152 222.197699 
L 167.123356 241.706755 
L 167.520991 221.000034 
L 168.186798 235.967473 
L 168.279271 228.026286 
L 168.297766 211.526522 
L 168.8711 187.164453 
L 168.963573 235.460293 
L 169.028304 222.976615 
L 171.793253 244.366616 
L 171.839489 241.253656 
L 171.913468 197.095615 
L 172.079919 243.100415 
L 172.449812 251.131857 
L 172.727232 237.824345 
L 173.152608 235.967311 
L 173.540996 210.698834 
L 173.59648 238.310455 
L 173.670458 235.606912 
L 174.641427 237.27242 
L 175.224008 235.176003 
L 175.362718 233.6463 
L 175.677127 242.715852 
L 175.843578 231.270036 
L 176.925515 251.452703 
L 177.230676 242.286356 
L 178.386591 228.895346 
L 178.571537 228.539476 
L 178.654763 227.559811 
L 178.848957 223.199159 
L 179.413043 243.142575 
L 179.59799 238.846849 
L 179.681216 249.338332 
L 180.411754 251.512414 
L 180.568958 178.825537 
L 181.077561 242.072358 
L 181.53068 258.059926 
L 182.446164 233.667137 
L 182.483153 249.292977 
L 183.001003 239.59562 
L 183.333907 230.562667 
L 183.750036 247.036345 
L 184.101434 250.707568 
L 184.471327 246.079197 
L 184.508316 257.66292 
L 184.526811 243.187538 
L 184.721005 249.07555 
L 184.730252 227.887896 
L 184.868962 244.671102 
L 184.97993 234.308521 
L 185.248102 235.132803 
L 185.266596 243.324489 
L 185.950898 222.613827 
L 186.385522 236.891143 
L 186.820146 244.3151 
L 187.374985 224.229805 
L 189.159718 257.18905 
L 189.196707 232.024184 
L 189.557353 239.106696 
L 189.816277 213.916524 
L 189.853267 223.17802 
L 190.519074 249.026366 
L 190.925956 235.466284 
L 191.813698 224.206112 
L 192.886387 219.422648 
L 193.302517 220.844274 
L 193.663162 240.06202 
L 193.940582 242.309359 
L 194.282733 224.959269 
L 194.902303 229.391566 
L 195.235206 237.255694 
L 195.836282 242.416886 
L 196.011981 239.338938 
L 196.058218 242.771599 
L 197.491552 246.985809 
L 197.926176 246.734794 
L 198.545747 252.615379 
L 199.054349 232.168313 
L 199.137575 239.239585 
L 199.378005 243.820196 
L 199.747898 234.313032 
L 200.959297 241.409643 
L 201.70833 229.4244 
L 201.773061 252.360186 
L 202.596073 233.815633 
L 202.660804 244.402431 
L 203.012202 244.941115 
L 203.067686 234.39899 
L 203.197148 236.384215 
L 203.280374 240.399306 
L 204.269837 241.764025 
L 204.658225 217.873762 
L 205.083601 246.826601 
L 205.287042 244.353228 
L 206.211774 221.498567 
L 206.896076 251.343447 
L 207.19199 247.75792 
L 207.312205 219.911135 
L 207.349195 241.180705 
L 207.839302 248.038807 
L 207.876292 251.851815 
L 208.015002 248.930607 
L 208.74554 243.821503 
L 209.170916 235.460474 
L 209.180164 248.30102 
L 209.217153 216.44879 
L 209.587046 238.178045 
L 209.716508 224.358911 
L 209.98468 249.439969 
L 210.280595 213.054193 
L 210.410057 244.299972 
L 211.658445 243.692107 
L 212.000596 226.23798 
L 212.444467 248.856853 
L 212.647908 235.000608 
L 212.786618 242.517992 
L 212.842102 228.359228 
L 213.101027 249.323441 
L 214.210705 232.865275 
L 214.46963 236.122974 
L 215.153932 252.361727 
L 215.246405 241.870587 
L 215.597803 227.054439 
L 215.902965 244.181469 
L 216.152642 241.221418 
L 216.64275 220.043677 
L 217.095869 235.892053 
L 218.113074 246.519688 
L 218.519956 246.700442 
L 218.899096 248.794802 
L 219.527914 247.472168 
L 219.537161 254.355003 
L 220.027269 234.313118 
L 220.045764 237.919309 
L 220.711571 240.790241 
L 221.442109 234.434417 
L 221.617808 237.799533 
L 221.765765 243.046691 
L 224.57695 249.307329 
L 224.613939 244.868182 
L 225.529424 243.949249 
L 225.825338 226.775575 
L 225.954801 192.912917 
L 225.982543 251.544977 
L 226.204478 237.997435 
L 226.574371 233.451187 
L 227.212436 247.457431 
L 227.767275 237.607095 
L 228.174157 237.006767 
L 228.229641 239.776837 
L 228.238888 256.693234 
L 228.386846 246.030142 
L 228.497813 255.374511 
L 229.182115 258.391485 
L 229.588997 236.821058 
L 230.707923 253.915688 
L 231.050073 233.919663 
L 232.27072 207.405369 
L 232.908785 240.696844 
L 232.918032 228.724974 
L 233.26943 227.650969 
L 233.426634 220.558955 
L 233.50986 253.710149 
L 233.824269 247.292639 
L 234.16642 247.166337 
L 235.137388 212.948502 
L 235.211367 249.273372 
L 235.248356 234.532166 
L 235.710722 237.825762 
L 236.358035 193.492695 
L 237.125562 228.440639 
L 237.319756 246.735556 
L 237.430724 245.764817 
L 237.504702 237.63095 
L 237.541691 255.422832 
L 237.578681 250.627973 
L 238.225993 243.676252 
L 239.381908 240.876497 
L 240.056962 249.659619 
L 240.278898 255.372356 
L 240.417608 251.605898 
L 240.639543 249.279943 
L 240.759759 241.282425 
L 240.842984 245.432414 
L 241.138899 249.399844 
L 242.174598 234.564563 
L 242.276319 240.051161 
L 243.321266 258.387702 
L 243.330513 225.661582 
L 243.413739 248.150233 
L 243.524707 249.707465 
L 243.663417 247.200248 
L 244.671374 241.209564 
L 245.475891 249.270911 
L 245.919763 258.356489 
L 246.474602 218.670244 
L 246.604064 252.119209 
L 246.613312 238.220235 
L 247.491807 261.984123 
L 248.129872 257.280666 
L 248.509012 233.803719 
L 249.045356 237.174151 
L 249.313529 255.052775 
L 249.442991 240.892372 
L 250.164282 245.70517 
L 250.192024 241.315395 
L 250.608153 245.365502 
L 251.264713 247.856976 
L 251.41267 240.202151 
L 251.606864 245.349571 
L 253.336113 256.861805 
L 253.983425 239.238198 
L 254.085145 249.154801 
L 254.639985 243.789057 
L 254.676974 254.590064 
L 254.797189 247.208274 
L 254.935899 256.025042 
L 256.045577 249.697857 
L 257.682352 255.548712 
L 258.153966 221.547114 
L 258.44988 217.165504 
L 258.533106 239.438624 
L 258.708805 245.686269 
L 258.875257 242.56837 
L 259.365365 253.22905 
L 259.550311 247.595923 
L 259.753752 251.924996 
L 259.96644 239.397689 
L 260.123645 254.144049 
L 260.151387 231.97439 
L 260.179129 242.513252 
L 260.521279 260.218001 
L 260.946656 248.706284 
L 260.965151 260.703905 
L 261.834399 235.450255 
L 262.084076 243.767248 
L 262.583432 229.709394 
L 263.563647 238.908127 
L 263.600637 250.954287 
L 263.739347 239.428684 
L 263.804078 264.816037 
L 263.859562 241.53096 
L 264.053755 254.24641 
L 264.386659 244.733217 
L 264.534616 250.990354 
L 265.24666 241.262711 
L 265.579563 243.18689 
L 265.709025 254.330979 
L 265.949456 241.062696 
L 265.986445 241.916243 
L 266.208381 256.121523 
L 266.310101 228.076603 
L 266.52279 251.260081 
L 266.929672 252.339353 
L 267.928382 234.079527 
L 268.353759 244.492342 
L 269.435695 256.523541 
L 269.45419 258.115184 
L 269.648383 239.136772 
L 269.796341 250.992095 
L 270.304943 233.775561 
L 270.323438 245.753569 
L 270.841288 250.182508 
L 271.562578 267.848449 
L 271.86774 254.901514 
L 273.883656 239.868817 
L 274.105591 249.773857 
L 274.55871 253.27979 
L 274.651183 223.181404 
L 274.79914 249.481002 
L 275.418711 253.267585 
L 275.825593 261.246776 
L 275.93656 234.943353 
L 276.140001 230.784223 
L 276.796561 261.155256 
L 276.815056 253.63613 
L 277.157207 247.870552 
L 277.601078 242.703128 
L 278.054197 225.571783 
L 278.220648 259.330046 
L 278.544304 246.441394 
L 278.886455 254.486845 
L 279.792693 250.729207 
L 280.292048 224.010983 
L 280.523231 259.706282 
L 281.817855 247.118107 
L 282.067533 252.188943 
L 283.038502 235.557333 
L 283.084738 237.643207 
L 283.204953 234.569371 
L 283.417642 261.35497 
L 283.528609 258.105926 
L 284.971191 240.296682 
L 285.304095 250.818693 
L 285.600009 256.427509 
L 286.302805 263.712903 
L 286.312052 203.818636 
L 287.172053 240.922094 
L 287.995065 248.245725 
L 288.013559 227.922124 
L 288.512914 229.458692 
L 288.540656 252.10269 
L 289.187969 240.001853 
L 291.351841 256.1043 
L 292.036143 237.540274 
L 292.498509 251.275778 
L 293.830123 244.745369 
L 295.291199 256.672866 
L 295.411414 231.408505 
L 295.818297 254.258863 
L 296.132705 252.495309 
L 296.169695 247.241538 
L 296.345394 190.719429 
L 297.399588 249.018638 
L 297.677008 248.49833 
L 298.305825 256.659887 
L 298.435288 245.541376 
L 298.805181 246.443617 
L 299.36002 239.084751 
L 299.452493 227.367128 
L 299.591203 250.42526 
L 299.887117 254.251369 
L 299.951848 250.605531 
L 300.146042 266.650335 
L 300.654644 228.350121 
L 300.673139 242.128542 
L 300.830344 258.25204 
L 300.959806 256.55889 
L 301.53314 256.503671 
L 301.551634 255.461808 
L 302.078732 250.100306 
L 302.772281 240.760075 
L 303.345614 256.203686 
L 304.723465 256.74808 
L 305.148842 237.654383 
L 305.36153 256.283201 
L 306.702391 261.531689 
L 307.044542 257.628592 
L 307.15551 244.940527 
L 307.39594 248.025133 
L 307.543897 252.746056 
L 307.562392 249.512842 
L 307.63637 263.07605 
L 307.654865 236.109872 
L 308.043252 246.568288 
L 308.57035 222.256849 
L 308.718307 252.080866 
L 309.43035 253.517534 
L 309.522823 225.229817 
L 309.633791 253.014856 
L 310.197878 259.116654 
L 310.808201 249.929248 
L 310.891427 251.029251 
L 311.187341 252.205895 
L 311.270567 261.661061 
L 311.344545 246.907356 
L 311.418524 262.148569 
L 311.705191 262.43134 
L 311.723685 260.707858 
L 312.722396 244.776123 
L 312.972074 243.812814 
L 313.110783 260.179535 
L 313.194009 250.900443 
L 313.77659 233.241025 
L 314.183472 244.722113 
L 314.229709 255.561391 
L 315.376376 258.050635 
L 315.718527 227.878898 
L 315.764764 258.579733 
L 315.811 244.283981 
L 316.116162 260.930472 
L 316.587775 233.615297 
L 316.735732 263.747787 
L 316.772722 262.847686 
L 317.253582 259.460132 
L 317.817669 235.219482 
L 317.826916 261.196417 
L 317.836163 245.621581 
L 318.742401 244.501005 
L 319.260251 253.636575 
L 319.667133 239.588114 
L 319.805842 255.703696 
L 319.981541 224.726665 
L 320.083262 247.869041 
L 320.499391 251.745678 
L 320.832295 262.961854 
L 322.385844 247.496988 
L 322.931436 269.849109 
L 323.624985 262.141187 
L 323.652727 242.966735 
L 323.735953 244.03956 
L 324.355523 253.174298 
L 324.50348 268.2793 
L 324.558964 253.473829 
L 325.326492 230.966661 
L 325.363481 259.638392 
L 325.557675 255.994523 
L 326.05703 243.235949 
L 326.861547 256.72359 
L 327.166708 257.51605 
L 327.240687 266.528894 
L 327.823268 249.459566 
L 328.017462 254.787883 
L 328.840473 265.596188 
L 329.201119 254.311679 
L 329.728216 254.352848 
L 330.662195 255.317946 
L 330.837894 260.757857 
L 332.141766 244.90278 
L 332.964777 255.858481 
L 333.038756 264.728963 
L 333.547359 239.088956 
L 333.723058 240.86398 
L 334.592306 255.034877 
L 336.108866 247.007159 
L 336.127361 252.922307 
L 336.6822 257.551478 
L 336.941125 252.776592 
L 337.773383 267.934771 
L 337.884351 253.782505 
L 338.559406 235.674502 
L 339.197471 255.60666 
L 339.511879 236.741034 
L 340.427364 250.290088 
L 340.898977 261.136644 
L 341.296612 266.78664 
L 341.768225 256.499716 
L 342.017903 235.938072 
L 342.350806 267.591786 
L 342.563495 244.94627 
L 343.257044 262.404874 
L 343.765646 263.171745 
L 343.913603 247.25017 
L 344.237259 265.629092 
L 344.292743 253.379829 
L 344.403711 271.587378 
L 345.282206 260.344105 
L 345.346938 263.654286 
L 345.504142 257.709731 
L 345.71683 253.913359 
L 346.114465 268.605695 
L 346.937477 258.952071 
L 347.039197 260.803928 
L 347.27038 261.772746 
L 347.78823 244.988448 
L 347.899198 267.476512 
L 348.019413 265.587025 
L 349.129091 243.840901 
L 349.526726 256.854982 
L 349.628446 254.800374 
L 349.68393 233.12259 
L 350.053823 263.423525 
L 350.358985 264.552724 
L 350.506942 261.775453 
L 351.191243 255.525803 
L 352.957481 258.471238 
L 353.780493 267.14871 
L 354.224364 246.504225 
L 355.149096 265.064008 
L 355.528236 248.76069 
L 355.777914 264.162737 
L 356.009097 262.236404 
L 356.221785 253.391642 
L 356.58243 262.842042 
L 356.850603 251.119196 
L 357.61813 265.973575 
L 358.478131 260.697773 
L 358.783292 264.905293 
L 359.643293 257.818509 
L 360.003939 258.883014 
L 360.318347 260.456308 
L 360.947165 246.450105 
L 361.788671 266.310055 
L 362.140069 264.598542 
L 362.34351 250.96763 
L 362.963081 265.875354 
L 363.074048 248.246162 
L 363.684372 265.299415 
L 364.65534 248.495195 
L 364.766308 271.645816 
L 365.015985 246.737293 
L 365.145448 257.922637 
L 365.339642 264.602016 
L 365.55233 236.098237 
L 365.718782 266.150018 
L 365.903728 234.303171 
L 367.374052 251.793678 
L 367.697708 246.795839 
L 368.123085 259.266239 
L 370.462656 264.425391 
L 370.592119 261.221523 
L 371.03599 265.566772 
L 371.470614 254.910922 
L 372.17341 263.895103 
L 372.672766 257.83181 
L 373.273841 268.557359 
L 373.283089 248.761975 
L 373.394057 255.800899 
L 373.403304 251.385961 
L 374.115348 270.186911 
L 374.170831 263.688652 
L 374.707176 267.539415 
L 374.892122 259.864569 
L 375.132553 263.795702 
L 375.456209 264.06982 
L 376.732339 266.046054 
L 377.102232 256.650143 
L 377.518361 261.32755 
L 377.601587 250.770045 
L 378.267394 243.134146 
L 378.655781 263.157583 
L 378.794491 254.864373 
L 378.840728 263.723076 
L 378.960943 253.756807 
L 379.099653 265.175995 
L 381.503955 250.166525 
L 381.577934 260.275421 
L 381.957074 236.956849 
L 381.966321 272.405369 
L 382.271483 248.862938 
L 382.447182 253.797336 
L 382.69686 267.584617 
L 382.965032 264.587082 
L 383.029763 258.117793 
L 383.21471 251.420498 
L 384.361377 260.509033 
L 384.463098 263.172327 
L 385.073421 261.517226 
L 385.091915 258.115787 
L 385.258367 255.496036 
L 385.582023 261.633834 
L 386.090626 262.556476 
L 386.821164 268.694807 
L 386.867401 253.132861 
L 387.634928 252.19198 
L 388.55966 257.242583 
L 388.66138 245.127287 
L 388.883316 260.536664 
L 389.724822 265.947895 
L 390.020736 249.353969 
L 390.029984 232.360736 
L 390.446113 260.79234 
L 391.121167 259.482941 
L 391.76848 257.634063 
L 392.378803 266.593771 
L 392.674717 256.433607 
L 392.878158 232.816442 
L 393.04461 263.314587 
L 393.063104 255.607492 
L 393.211061 269.134628 
L 393.701169 261.943561 
L 393.9416 261.354013 
L 394.209772 267.568538 
L 394.570417 242.345528 
L 394.810848 268.654509 
L 395.116009 270.246929 
L 395.522891 266.580298 
L 395.69859 267.612461 
L 397.002462 251.16416 
L 397.603538 262.826465 
L 397.806979 247.462341 
L 397.945689 261.729928 
L 398.380313 264.917008 
L 398.611496 264.653707 
L 398.870421 224.277914 
L 398.953647 265.281815 
L 399.554722 250.580693 
L 399.822895 252.308188 
L 400.026336 228.493545 
L 400.581175 260.018247 
L 401.367197 257.414062 
L 401.59838 227.567501 
L 401.959025 269.747006 
L 402.282682 259.868565 
L 402.763542 266.659627 
L 402.837521 254.160063 
L 403.900962 249.936441 
L 404.076661 256.449921 
L 404.483543 255.266811 
L 405.18634 254.165504 
L 405.269566 262.822768 
L 406.869352 247.336819 
L 406.915588 250.260309 
L 407.396449 252.906659 
L 407.646127 240.529022 
L 408.25645 257.759672 
L 408.274944 268.481685 
L 408.367418 263.964095 
L 408.5986 252.811272 
L 408.644837 267.93993 
L 408.654084 259.97299 
L 408.913009 260.792675 
L 409.107203 259.063181 
L 409.181182 255.327668 
L 409.514085 257.755131 
L 410.568279 270.460905 
L 410.753226 257.911408 
L 410.956667 264.333464 
L 411.002903 269.920625 
L 411.113871 226.349791 
L 411.243334 266.834661 
L 411.42828 263.174759 
L 411.502259 255.56748 
L 411.973872 263.537764 
L 412.611937 255.678296 
L 412.741399 262.541461 
L 412.815378 256.537078 
L 413.08355 264.163797 
L 413.6014 266.089978 
L 413.693873 217.336834 
L 413.897314 266.885589 
L 415.404627 231.621655 
L 416.616026 260.783353 
L 416.865704 261.876337 
L 416.884198 248.717144 
L 417.226349 272.043908 
L 417.318822 264.667069 
L 417.660973 265.799271 
L 417.679468 251.482063 
L 417.993877 260.276001 
L 418.003124 266.425679 
L 418.058608 239.576901 
L 418.058608 239.576901 
" clip-path="url(#pea66cb6b48)" style="fill: none; stroke: #ff0000; stroke-width: 2; stroke-linecap: round"/>
   </g>
   <g id="patch_3">
    <path d="M 53.489063 284.097187 
L 53.489063 26.877187 
" style="fill: none; stroke: #cccccc; stroke-linejoin: miter; stroke-linecap: square"/>
   </g>
   <g id="patch_4">
    <path d="M 435.419062 284.097187 
L 435.419062 26.877187 
" style="fill: none; stroke: #cccccc; stroke-linejoin: miter; stroke-linecap: square"/>
   </g>
   <g id="patch_5">
    <path d="M 53.489063 284.097187 
L 435.419062 284.097187 
" style="fill: none; stroke: #cccccc; stroke-linejoin: miter; stroke-linecap: square"/>
   </g>
   <g id="patch_6">
    <path d="M 53.489063 26.877187 
L 435.419062 26.877187 
" style="fill: none; stroke: #cccccc; stroke-linejoin: miter; stroke-linecap: square"/>
   </g>
   <g id="text_11">
    <!-- train_loss -->
    <g style="fill: #262626" transform="translate(201.6225 20.877187)scale(0.18 -0.18)">
     <use xlink:href="#DejaVuSans-74"/>
     <use xlink:href="#DejaVuSans-72" x="39.208984"/>
     <use xlink:href="#DejaVuSans-61" x="80.322266"/>
     <use xlink:href="#DejaVuSans-69" x="141.601562"/>
     <use xlink:href="#DejaVuSans-6e" x="169.384766"/>
     <use xlink:href="#DejaVuSans-5f" x="232.763672"/>
     <use xlink:href="#DejaVuSans-6c" x="282.763672"/>
     <use xlink:href="#DejaVuSans-6f" x="310.546875"/>
     <use xlink:href="#DejaVuSans-73" x="371.728516"/>
     <use xlink:href="#DejaVuSans-73" x="423.828125"/>
    </g>
   </g>
  </g>
 </g>
 <defs>
  <clipPath id="pea66cb6b48">
   <rect x="53.489063" y="26.877187" width="381.93" height="257.22"/>
  </clipPath>
 </defs>
</svg>
